<?xml version="1.0" standalone="no"?>
<!DOCTYPE svg PUBLIC "-//W3C//DTD SVG 20010904//EN"
 "http://www.w3.org/TR/2001/REC-SVG-20010904/DTD/svg10.dtd">
<svg version="1.0" xmlns="http://www.w3.org/2000/svg"
 width="500.000000pt" height="500.000000pt" viewBox="0 0 500.000000 500.000000"
 preserveAspectRatio="xMidYMid meet">
<metadata>
Created by potrace 1.14, written by Peter Selinger 2001-2017
</metadata>
<g transform="translate(0.000000,500.000000) scale(0.100000,-0.100000)"
fill="#000000" stroke="none">
<path d="M1700 4185 l0 -115 803 2 802 3 3 113 3 112 -806 0 -805 0 0 -115z"/>
<path d="M1259 3846 c-85 -30 -150 -103 -170 -191 -32 -145 57 -283 206 -316
154 -34 315 98 315 259 l0 32 890 0 890 0 0 -28 c0 -111 87 -226 193 -257 74
-21 136 -14 205 26 91 52 139 143 129 248 -8 93 -59 169 -142 214 l-40 22
-1220 2 c-980 2 -1227 0 -1256 -11z m157 -142 c34 -23 54 -65 54 -114 0 -32
-7 -48 -34 -78 -32 -34 -38 -37 -91 -37 -53 0 -59 3 -91 37 -53 58 -47 134 14
185 33 28 110 31 148 7z m2293 -18 c54 -29 67 -105 25 -155 -50 -60 -140 -46
-170 26 -20 46 -10 86 28 118 33 28 75 32 117 11z"/>
<path d="M1670 2028 l0 -1331 51 72 c27 40 79 108 115 152 l64 80 0 1179 0
1180 -115 0 -115 0 0 -1332z"/>
<path d="M2150 2314 l0 -1046 115 108 115 107 0 939 0 938 -115 0 -115 0 0
-1046z"/>
<path d="M2630 2515 l0 -845 88 57 c48 30 97 62 110 70 l22 13 0 775 0 775
-110 0 -110 0 0 -845z"/>
<path d="M3100 2654 c0 -668 1 -706 18 -701 9 3 61 25 115 48 l97 43 0 658 0
658 -115 0 -115 0 0 -706z"/>
</g>
</svg>
